<mxfile host="app.diagrams.net" agent="Mozilla/5.0 (Windows NT 10.0; Win64; x64) AppleWebKit/537.36 (KHTML, like Gecko) Chrome/130.0.0.0 Safari/537.36 Edg/130.0.0.0" version="24.8.0">
  <diagram id="C5RBs43oDa-KdzZeNtuy" name="Page-1">
    <mxGraphModel dx="1603" dy="872" grid="1" gridSize="10" guides="1" tooltips="1" connect="1" arrows="1" fold="1" page="1" pageScale="1" pageWidth="827" pageHeight="1169" math="0" shadow="0">
      <root>
        <mxCell id="WIyWlLk6GJQsqaUBKTNV-0" />
        <mxCell id="WIyWlLk6GJQsqaUBKTNV-1" parent="WIyWlLk6GJQsqaUBKTNV-0" />
        <mxCell id="3oP2r-Mxomx6HXX4xJhM-0" value="Khách hàng truy cập website" style="whiteSpace=wrap;strokeWidth=2;" vertex="1" parent="WIyWlLk6GJQsqaUBKTNV-1">
          <mxGeometry x="331" y="20" width="207" height="66" as="geometry" />
        </mxCell>
        <mxCell id="3oP2r-Mxomx6HXX4xJhM-1" value="Xem các chủng loại hàng" style="whiteSpace=wrap;strokeWidth=2;" vertex="1" parent="WIyWlLk6GJQsqaUBKTNV-1">
          <mxGeometry x="314" y="136" width="240" height="48" as="geometry" />
        </mxCell>
        <mxCell id="3oP2r-Mxomx6HXX4xJhM-2" value="Lựa chọn sản phẩm và đưa vào giỏ hàng" style="whiteSpace=wrap;strokeWidth=2;" vertex="1" parent="WIyWlLk6GJQsqaUBKTNV-1">
          <mxGeometry x="306" y="234" width="256" height="66" as="geometry" />
        </mxCell>
        <mxCell id="3oP2r-Mxomx6HXX4xJhM-3" value="Khách hàng đăng nhập hoặc đăng kí thành viên" style="whiteSpace=wrap;strokeWidth=2;" vertex="1" parent="WIyWlLk6GJQsqaUBKTNV-1">
          <mxGeometry x="318" y="350" width="232" height="66" as="geometry" />
        </mxCell>
        <mxCell id="3oP2r-Mxomx6HXX4xJhM-4" value="Điền thông tin nhận hàng và chọn hình thức thanh toán" style="whiteSpace=wrap;strokeWidth=2;" vertex="1" parent="WIyWlLk6GJQsqaUBKTNV-1">
          <mxGeometry x="313" y="466" width="243" height="84" as="geometry" />
        </mxCell>
        <mxCell id="3oP2r-Mxomx6HXX4xJhM-5" value="Hệ thống kiểm tra đơn hàng" style="rhombus;strokeWidth=2;whiteSpace=wrap;" vertex="1" parent="WIyWlLk6GJQsqaUBKTNV-1">
          <mxGeometry x="319" y="600" width="231" height="231" as="geometry" />
        </mxCell>
        <mxCell id="3oP2r-Mxomx6HXX4xJhM-6" value="Nhân viên kinh doanh kiểm tra đơn hàng" style="whiteSpace=wrap;strokeWidth=2;" vertex="1" parent="WIyWlLk6GJQsqaUBKTNV-1">
          <mxGeometry x="160" y="921" width="254" height="66" as="geometry" />
        </mxCell>
        <mxCell id="3oP2r-Mxomx6HXX4xJhM-7" value="Thông báo lỗi cho khách hàng" style="whiteSpace=wrap;strokeWidth=2;" vertex="1" parent="WIyWlLk6GJQsqaUBKTNV-1">
          <mxGeometry x="464" y="921" width="236" height="68" as="geometry" />
        </mxCell>
        <mxCell id="3oP2r-Mxomx6HXX4xJhM-8" value="Liên hệ khách hàng để xác nhận thông tin" style="whiteSpace=wrap;strokeWidth=2;" vertex="1" parent="WIyWlLk6GJQsqaUBKTNV-1">
          <mxGeometry x="161" y="1038" width="251" height="66" as="geometry" />
        </mxCell>
        <mxCell id="3oP2r-Mxomx6HXX4xJhM-9" value="Chuyển đơn hàng cho bộ phận giao hàng" style="whiteSpace=wrap;strokeWidth=2;" vertex="1" parent="WIyWlLk6GJQsqaUBKTNV-1">
          <mxGeometry x="168" y="1154" width="238" height="66" as="geometry" />
        </mxCell>
        <mxCell id="3oP2r-Mxomx6HXX4xJhM-10" value="Liên hệ kho lấy hàng" style="whiteSpace=wrap;strokeWidth=2;" vertex="1" parent="WIyWlLk6GJQsqaUBKTNV-1">
          <mxGeometry x="182" y="1270" width="209" height="48" as="geometry" />
        </mxCell>
        <mxCell id="3oP2r-Mxomx6HXX4xJhM-11" value="Bộ phận giao hàng chuyển phát cho khách hàng" style="whiteSpace=wrap;strokeWidth=2;" vertex="1" parent="WIyWlLk6GJQsqaUBKTNV-1">
          <mxGeometry x="20" y="1377" width="249" height="66" as="geometry" />
        </mxCell>
        <mxCell id="3oP2r-Mxomx6HXX4xJhM-12" value="Hoàn tất giao hàng" style="whiteSpace=wrap;strokeWidth=2;" vertex="1" parent="WIyWlLk6GJQsqaUBKTNV-1">
          <mxGeometry x="46" y="1502" width="197" height="48" as="geometry" />
        </mxCell>
        <mxCell id="3oP2r-Mxomx6HXX4xJhM-13" value="Bộ phận kho cập nhật thông tin hàng lên hệ thống" style="whiteSpace=wrap;strokeWidth=2;" vertex="1" parent="WIyWlLk6GJQsqaUBKTNV-1">
          <mxGeometry x="319" y="1369" width="219" height="84" as="geometry" />
        </mxCell>
        <mxCell id="3oP2r-Mxomx6HXX4xJhM-14" value="" style="curved=1;startArrow=none;endArrow=block;exitX=0.5;exitY=1;entryX=0.5;entryY=0;rounded=0;" edge="1" parent="WIyWlLk6GJQsqaUBKTNV-1" source="3oP2r-Mxomx6HXX4xJhM-0" target="3oP2r-Mxomx6HXX4xJhM-1">
          <mxGeometry relative="1" as="geometry">
            <Array as="points" />
          </mxGeometry>
        </mxCell>
        <mxCell id="3oP2r-Mxomx6HXX4xJhM-15" value="" style="curved=1;startArrow=none;endArrow=block;exitX=0.5;exitY=1.01;entryX=0.5;entryY=0.01;rounded=0;" edge="1" parent="WIyWlLk6GJQsqaUBKTNV-1" source="3oP2r-Mxomx6HXX4xJhM-1" target="3oP2r-Mxomx6HXX4xJhM-2">
          <mxGeometry relative="1" as="geometry">
            <Array as="points" />
          </mxGeometry>
        </mxCell>
        <mxCell id="3oP2r-Mxomx6HXX4xJhM-16" value="" style="curved=1;startArrow=none;endArrow=block;exitX=0.5;exitY=1.01;entryX=0.5;entryY=0.01;rounded=0;" edge="1" parent="WIyWlLk6GJQsqaUBKTNV-1" source="3oP2r-Mxomx6HXX4xJhM-2" target="3oP2r-Mxomx6HXX4xJhM-3">
          <mxGeometry relative="1" as="geometry">
            <Array as="points" />
          </mxGeometry>
        </mxCell>
        <mxCell id="3oP2r-Mxomx6HXX4xJhM-17" value="" style="curved=1;startArrow=none;endArrow=block;exitX=0.5;exitY=1.01;entryX=0.5;entryY=0;rounded=0;" edge="1" parent="WIyWlLk6GJQsqaUBKTNV-1" source="3oP2r-Mxomx6HXX4xJhM-3" target="3oP2r-Mxomx6HXX4xJhM-4">
          <mxGeometry relative="1" as="geometry">
            <Array as="points" />
          </mxGeometry>
        </mxCell>
        <mxCell id="3oP2r-Mxomx6HXX4xJhM-18" value="" style="curved=1;startArrow=none;endArrow=block;exitX=0.5;exitY=1;entryX=0.5;entryY=0;rounded=0;" edge="1" parent="WIyWlLk6GJQsqaUBKTNV-1" source="3oP2r-Mxomx6HXX4xJhM-4" target="3oP2r-Mxomx6HXX4xJhM-5">
          <mxGeometry relative="1" as="geometry">
            <Array as="points" />
          </mxGeometry>
        </mxCell>
        <mxCell id="3oP2r-Mxomx6HXX4xJhM-19" value="Thanh toán thành công" style="curved=1;startArrow=none;endArrow=block;exitX=0.04;exitY=1;entryX=0.5;entryY=0.01;rounded=0;" edge="1" parent="WIyWlLk6GJQsqaUBKTNV-1" source="3oP2r-Mxomx6HXX4xJhM-5" target="3oP2r-Mxomx6HXX4xJhM-6">
          <mxGeometry relative="1" as="geometry">
            <Array as="points">
              <mxPoint x="287" y="876" />
            </Array>
          </mxGeometry>
        </mxCell>
        <mxCell id="3oP2r-Mxomx6HXX4xJhM-20" value="Thanh toán không thành công" style="curved=1;startArrow=none;endArrow=block;exitX=0.96;exitY=1;entryX=0.5;entryY=0;rounded=0;" edge="1" parent="WIyWlLk6GJQsqaUBKTNV-1" source="3oP2r-Mxomx6HXX4xJhM-5" target="3oP2r-Mxomx6HXX4xJhM-7">
          <mxGeometry relative="1" as="geometry">
            <Array as="points">
              <mxPoint x="582" y="876" />
            </Array>
          </mxGeometry>
        </mxCell>
        <mxCell id="3oP2r-Mxomx6HXX4xJhM-21" value="" style="curved=1;startArrow=none;endArrow=block;exitX=0.5;exitY=1.01;entryX=0.5;entryY=0;rounded=0;" edge="1" parent="WIyWlLk6GJQsqaUBKTNV-1" source="3oP2r-Mxomx6HXX4xJhM-6" target="3oP2r-Mxomx6HXX4xJhM-8">
          <mxGeometry relative="1" as="geometry">
            <Array as="points" />
          </mxGeometry>
        </mxCell>
        <mxCell id="3oP2r-Mxomx6HXX4xJhM-22" value="" style="curved=1;startArrow=none;endArrow=block;exitX=0.5;exitY=1;entryX=0.5;entryY=0;rounded=0;" edge="1" parent="WIyWlLk6GJQsqaUBKTNV-1" source="3oP2r-Mxomx6HXX4xJhM-8" target="3oP2r-Mxomx6HXX4xJhM-9">
          <mxGeometry relative="1" as="geometry">
            <Array as="points" />
          </mxGeometry>
        </mxCell>
        <mxCell id="3oP2r-Mxomx6HXX4xJhM-23" value="" style="curved=1;startArrow=none;endArrow=block;exitX=0.5;exitY=1;entryX=0.5;entryY=0.01;rounded=0;" edge="1" parent="WIyWlLk6GJQsqaUBKTNV-1" source="3oP2r-Mxomx6HXX4xJhM-9" target="3oP2r-Mxomx6HXX4xJhM-10">
          <mxGeometry relative="1" as="geometry">
            <Array as="points" />
          </mxGeometry>
        </mxCell>
        <mxCell id="3oP2r-Mxomx6HXX4xJhM-24" value="" style="curved=1;startArrow=none;endArrow=block;exitX=0.17;exitY=1.01;entryX=0.5;entryY=0.01;rounded=0;" edge="1" parent="WIyWlLk6GJQsqaUBKTNV-1" source="3oP2r-Mxomx6HXX4xJhM-10" target="3oP2r-Mxomx6HXX4xJhM-11">
          <mxGeometry relative="1" as="geometry">
            <Array as="points">
              <mxPoint x="145" y="1344" />
            </Array>
          </mxGeometry>
        </mxCell>
        <mxCell id="3oP2r-Mxomx6HXX4xJhM-25" value="" style="curved=1;startArrow=none;endArrow=block;exitX=0.5;exitY=1.01;entryX=0.5;entryY=0.01;rounded=0;" edge="1" parent="WIyWlLk6GJQsqaUBKTNV-1" source="3oP2r-Mxomx6HXX4xJhM-11" target="3oP2r-Mxomx6HXX4xJhM-12">
          <mxGeometry relative="1" as="geometry">
            <Array as="points" />
          </mxGeometry>
        </mxCell>
        <mxCell id="3oP2r-Mxomx6HXX4xJhM-26" value="" style="curved=1;startArrow=none;endArrow=block;exitX=0.84;exitY=1.01;entryX=0.5;entryY=0;rounded=0;" edge="1" parent="WIyWlLk6GJQsqaUBKTNV-1" source="3oP2r-Mxomx6HXX4xJhM-10" target="3oP2r-Mxomx6HXX4xJhM-13">
          <mxGeometry relative="1" as="geometry">
            <Array as="points">
              <mxPoint x="429" y="1344" />
            </Array>
          </mxGeometry>
        </mxCell>
      </root>
    </mxGraphModel>
  </diagram>
</mxfile>
